{"title":"KAAKI SATTAI 2015 WEBRIP 350MB XVID AAC","uid":11744500,"size":354965772,"categoryP":"video","categoryS":"other","magnet":"?xt=urn:btih:c185b588e84c793d7a936dde8f112e6dc4dfb8e4&amp;dn=KAAKI+SATTAI+2015+WEBRIP+350MB+XVID+AAC&amp;tr=udp%3A%2F%2Ftracker.openbittorrent.com%3A80&amp;tr=udp%3A%2F%2Fopen.demonii.com%3A1337&amp;tr=udp%3A%2F%2Ftracker.coppersurfer.tk%3A6969&amp;tr=udp%3A%2F%2Fexodus.desync.com%3A6969","seeders":24,"leechers":2,"uploader":"mbtorrents","files":1,"time":1425939767,"description":"Screens: &lt;a href=&quot;\nhttp://movimg.net/viewer.php?file=4plokee80wmi258rsn2g.png&quot; rel=&quot;nofollow&quot; target=&quot;_NEW&quot;&gt;\nhttp://movimg.net/viewer.php?file=4plokee80wmi258rsn2g.png&lt;/a&gt; &lt;a href=&quot;\nhttp://movimg.net/viewer.php?file=j3tz13vm2rb9oo6j73wq.png&quot; rel=&quot;nofollow&quot; target=&quot;_NEW&quot;&gt;\nhttp://movimg.net/viewer.php?file=j3tz13vm2rb9oo6j73wq.png&lt;/a&gt; &lt;a href=&quot;\nhttp://movimg.net/viewer.php?file=s79v17ehfs822nyzkmfk.png&quot; rel=&quot;nofollow&quot; target=&quot;_NEW&quot;&gt;\nhttp://movimg.net/viewer.php?file=s79v17ehfs822nyzkmfk.png&lt;/a&gt;\n\nFormat : Flash Video \nFile size : 339 MiB \nDuration : 2h 30mn \nOverall bit rate : 314 Kbps \nTagging application : Yet Another Metadata Injector for FLV - Version 1.9 \n\nVideo \nFormat : AVC \nFormat/Info : Advanced Video Codec \nFormat profile : &lt;a class=&quot;__cf_email__&quot; href=&quot;/cdn-cgi/l/email-protection&quot; data-cfemail=&quot;b3fbdad4dbf3ff819d82&quot;&gt;[email&amp;#160;protected]&lt;/a&gt;&lt;script cf-hash='f9e31' type=&quot;text/javascript&quot;&gt;\n/* &lt;![CDATA[ */!function(){try{var t=&quot;currentScript&quot;in document?document.currentScript:function(){for(var t=document.getElementsByTagName(&quot;script&quot;),e=t.length;e--;)if(t[e].getAttribute(&quot;cf-hash&quot;))return t[e]}();if(t&amp;&amp;t.previousSibling){var e,r,n,i,c=t.previousSibling,a=c.getAttribute(&quot;data-cfemail&quot;);if(a){for(e=&quot;&quot;,r=parseInt(a.substr(0,2),16),n=2;a.length-n;n+=2)i=parseInt(a.substr(n,2),16)^r,e+=String.fromCharCode(i);e=document.createTextNode(e),c.parentNode.replaceChild(e,c)}}}catch(u){}}();/* ]]&gt; */&lt;/script&gt; \nFormat settings, CABAC : Yes \nFormat settings, ReFrames : 4 frames \nCodec ID : 7 \nDuration : 2h 30mn \nBit rate : 147 Kbps \nWidth : 352 pixels \nHeight : 288 pixels \nDisplay aspect ratio : 16:9 \nFrame rate mode : Constant \nFrame rate : 25.000 fps \nStandard : PAL \nColor space : YUV \nChroma subsampling : 4:2:0 \nBit depth : 8 bits \nScan type : Progressive \nBits/(Pixel*Frame) : 0.058 \nStream size : 165 MiB (49%) \nWriting library : x264 core 138 \nEncoding settings : cabac=1 / ref=2 / deblock=1:0:0 / analyse=0x3:0x113 / me=hex / subme=4 / psy=1 / psy_rd=1.00:0.00 / mixed_ref=0 / me_range=16 / chroma_me=1 / trellis=1 / 8x8dct=1 / cqm=0 / deadzone=21,11 / fast_pskip=1 / chroma_qp_offset=0 / threads=36 / lookahead_threads=2 / sliced_threads=0 / nr=0 / decimate=1 / interlaced=0 / bluray_compat=0 / constrained_intra=0 / bframes=3 / b_pyramid=2 / b_adapt=1 / b_bias=0 / direct=1 / weightb=1 / open_gop=0 / weightp=1 / keyint=250 / keyint_min=25 / scenecut=40 / intra_refresh=0 / rc_lookahead=20 / rc=crf / mbtree=1 / crf=26.0 / qcomp=0.60 / qpmin=0 / qpmax=69 / qpstep=4 / vbv_maxrate=800 / vbv_bufsize=4000 / crf_max=0.0 / nal_hrd=none / ip_ratio=1.40 / aq=1:1.00 \n\nAudio \nFormat : AAC \nFormat/Info : Advanced Audio Codec \nFormat profile : LC \nCodec ID : 10 \nDuration : 2h 30mn \nBit rate : 151 Kbps \nChannel(s) : 2 channels \nChannel positions : Front: L R \nSampling rate : 44.1 KHz \nCompression mode : Lossy \nDelay relative to video : 34ms \nStream size : 171 MiB (51%)","torrent":{"xt":"urn:btih:c185b588e84c793d7a936dde8f112e6dc4dfb8e4","amp;dn":"KAAKI+SATTAI+2015+WEBRIP+350MB+XVID+AAC","amp;tr":["udp%3A%2F%2Ftracker.openbittorrent.com%3A80","udp%3A%2F%2Fopen.demonii.com%3A1337","udp%3A%2F%2Ftracker.coppersurfer.tk%3A6969","udp%3A%2F%2Fexodus.desync.com%3A6969"],"infoHash":"c185b588e84c793d7a936dde8f112e6dc4dfb8e4","infoHashBuffer":{"type":"Buffer","data":[193,133,181,136,232,76,121,61,122,147,109,222,143,17,46,109,196,223,184,228]},"announce":[],"urlList":[]}}